<?xml version="1.0" standalone="no"?>
<!DOCTYPE svg PUBLIC "-//W3C//DTD SVG 20010904//EN"
 "http://www.w3.org/TR/2001/REC-SVG-20010904/DTD/svg10.dtd">
<svg version="1.0" xmlns="http://www.w3.org/2000/svg"
 width="512.000000pt" height="512.000000pt" viewBox="0 0 512.000000 512.000000"
 preserveAspectRatio="xMidYMid meet">
<metadata>
Created by potrace 1.11, written by Peter Selinger 2001-2013
</metadata>
<g transform="translate(0.000000,512.000000) scale(0.100000,-0.100000)"
fill="#000000" stroke="none">
<path d="M0 2560 l0 -2560 2560 0 2560 0 0 2560 0 2560 -2560 0 -2560 0 0
-2560z m1390 695 c129 -46 232 -147 267 -265 24 -78 21 -200 -6 -272 -42 -109
-150 -197 -286 -233 -41 -10 -107 -15 -212 -15 l-153 0 0 -215 0 -215 -150 0
-150 0 0 621 0 620 318 -3 c283 -3 323 -6 372 -23z m945 -286 c166 -31 282
-150 314 -324 6 -32 11 -98 11 -147 l0 -88 -285 0 c-191 0 -285 -3 -285 -10 0
-26 43 -91 76 -117 31 -23 49 -28 108 -31 91 -5 148 10 195 53 l37 34 62 -73
c34 -41 62 -78 62 -84 0 -16 -66 -70 -118 -96 -146 -74 -345 -76 -484 -5 -58
29 -140 110 -171 167 -75 138 -77 349 -5 501 82 173 271 259 483 220z m1089
-22 c96 -44 158 -128 193 -260 23 -84 23 -280 0 -364 -50 -189 -168 -293 -331
-293 -76 0 -119 13 -168 51 -20 16 -39 29 -42 29 -3 0 -6 -52 -6 -115 l0 -115
-145 0 -145 0 0 540 0 540 134 0 133 0 7 -41 6 -40 42 36 c23 20 63 42 88 50
63 21 167 13 234 -18z m806 23 c138 -22 254 -107 284 -211 25 -84 34 -79 -129
-79 l-145 0 0 26 c0 15 -12 38 -29 55 -24 23 -38 29 -75 29 -59 0 -96 -18
-111 -54 -16 -38 -3 -77 33 -98 15 -9 82 -30 150 -46 140 -35 194 -58 241
-104 50 -49 72 -101 73 -172 3 -173 -153 -286 -392 -286 -220 0 -386 110 -407
271 l-6 39 130 0 130 0 12 -40 c35 -117 261 -116 261 1 0 46 -39 69 -177 105
-173 44 -274 107 -309 190 -20 48 -17 151 5 199 21 48 97 120 149 143 90 38
198 50 312 32z"/>
<path d="M1000 2874 l0 -186 133 4 c149 4 181 16 220 77 26 43 29 141 5 186
-43 81 -101 104 -260 105 l-98 0 0 -186z"/>
<path d="M2185 2750 c-29 -12 -62 -50 -80 -92 -28 -70 -31 -68 131 -68 l147 0
-5 50 c-3 29 -13 59 -24 71 -37 42 -118 61 -169 39z"/>
<path d="M3140 2749 c-14 -6 -35 -20 -47 -31 -22 -21 -23 -27 -23 -213 l0
-191 30 -29 c26 -25 40 -30 95 -33 64 -4 66 -4 99 32 46 48 59 112 54 252 -3
92 -7 116 -27 151 -37 64 -111 90 -181 62z"/>
</g>
</svg>
