<?xml version="1.0" encoding="UTF-8"?>
<svg width="13" height="13" version="1.1" viewBox="0 0 1792 1792" xmlns="http://www.w3.org/2000/svg" xmlns:cc="http://creativecommons.org/ns#" xmlns:dc="http://purl.org/dc/elements/1.1/" xmlns:rdf="http://www.w3.org/1999/02/22-rdf-syntax-ns#">
<metadata>
<rdf:RDF>
<cc:Work rdf:about="">
<dc:format>image/svg+xml</dc:format>
<dc:type rdf:resource="http://purl.org/dc/dcmitype/StillImage"/>
<dc:title/>
</cc:Work>
</rdf:RDF>
</metadata>
<path transform="scale(137.85)" d="m6.5 0.92773c-1.0108-1e-8 -1.9433 0.24991-2.7969 0.74805-0.85361 0.49814-1.5292 1.1737-2.0273 2.0273-0.49814 0.85361-0.74805 1.7861-0.74805 2.7969-1e-8 1.0108 0.24991 1.9433 0.74805 2.7969 0.49814 0.85361 1.1737 1.5292 2.0273 2.0273s1.7861 0.74805 2.7969 0.74805c1.0108 0 1.9433-0.24991 2.7969-0.74805 0.85361-0.49814 1.5292-1.1737 2.0273-2.0273 0.49814-0.85361 0.74805-1.7861 0.74805-2.7969 0-1.0108-0.24991-1.9433-0.74805-2.7969s-1.1737-1.5292-2.0273-2.0273c-0.85361-0.49814-1.7861-0.74805-2.7969-0.74805zm0.039062 0.67188c0.43244 0 0.78482 0.11147 1.0566 0.33594 0.28417 0.22447 0.42578 0.50216 0.42578 0.83398 0 0.068317-0.012399 0.23063-0.037109 0.48438l-0.53711 4.3477c-0.061777 0.47822-0.36457 0.7168-0.9082 0.7168-0.25946 0-0.47546-0.062579-0.64844-0.18945-0.16062-0.12687-0.25459-0.30287-0.2793-0.52734l-0.53711-4.3477c-0.024711-0.23423-0.037109-0.39654-0.037109-0.48438 0-0.34159 0.14161-0.61927 0.42578-0.83398 0.28417-0.22447 0.64373-0.33594 1.0762-0.33594zm-0.16797 7.627h0.31641c0.34595 0 0.63634 0.091912 0.87109 0.27734 0.23475 0.18543 0.35156 0.41618 0.35156 0.68945 1e-7 0.27327-0.11681 0.50207-0.35156 0.6875-0.23475 0.18543-0.52514 0.27734-0.87109 0.27734h-0.31641c-0.34595 0-0.64156-0.091912-0.88867-0.27734-0.23475-0.19519-0.35156-0.42399-0.35156-0.6875 0-0.26351 0.11681-0.4884 0.35156-0.67383 0.24711-0.19519 0.54272-0.29297 0.88867-0.29297z" fill="#c2a802" stroke-width=".0072545"/>
</svg>
